<?xml version="1.0" encoding="utf-8"?>
<!-- Generator: Adobe Illustrator 19.1.0, SVG Export Plug-In . SVG Version: 6.00 Build 0)  -->
<svg version="1.1" id="Calque_1" xmlns="http://www.w3.org/2000/svg" xmlns:xlink="http://www.w3.org/1999/xlink" x="0px" y="0px"
	 viewBox="-285 377 40 40" style="enable-background:new -285 377 40 40;" xml:space="preserve">
<style type="text/css">
	.st0{fill:#F8A01C;}
</style>
<g>
	<path class="st0" d="M-265,377c-11,0-20,9-20,20s9,20,20,20s20-9,20-20S-254,377-265,377z M-265,415c-9.9,0-18-8.1-18-18
		s8.1-18,18-18s18,8.1,18,18S-255.1,415-265,415z"/>
</g>
<path class="st0" d="M-254.9,394.3h-4.8v-4.1h-3.6v-3.8h-4.6v0.8h-5.7v4.9h-1.5v7.9h2.5v4.2h3.8v3.3h6v-1.3h4.2v-4h3.8V394.3z
	 M-259.6,405.2h-3.2v-5.6h-6v3.6h-2.8V400h0.8v-7.9h-1.8v-3.9h4.7v4h4.6v-1h2.6v3.1h-0.3v7.9h1.3V405.2z"/>
</svg>
