<svg id="Layer_1" data-name="Layer 1" xmlns="http://www.w3.org/2000/svg" viewBox="0 0 120 120"><defs><style>.cls-1{fill:#0096e6;}.cls-2,.cls-4{fill:none;stroke-width:4px;}.cls-2{stroke:#0096e6;}.cls-3{fill:#d0e8f9;}.cls-4{stroke:#fff;stroke-linecap:round;}.cls-5{fill:#fff;}</style></defs><title>icon-commandline</title><g id="Page-1"><g id="y59"><rect class="cls-1" x="3" y="28" width="114" height="89"/><path id="Stroke-294" class="cls-2" d="M2,2H118V118H2V2Z"/><path id="Fill-295" class="cls-3" d="M2,2H118V26H2V2Z"/><path id="Stroke-296" class="cls-2" d="M2,2H118V26H2V2Z"/><path id="Path" class="cls-4" d="M33.93,81.5H54.07"/><path id="Path-2" data-name="Path" class="cls-4" d="M26,69.42L14,59.31"/><path id="Path-3" data-name="Path" class="cls-4" d="M26,69.42L15.93,81.5"/><path id="Fill-1841" class="cls-5" d="M20,14a6,6,0,1,1-6-6,6,6,0,0,1,6,6h0Z"/><path id="Stroke-1842" class="cls-2" d="M20,14a6,6,0,1,1-6-6,6,6,0,0,1,6,6h0Z"/><path id="Fill-1843" class="cls-5" d="M38,14a6,6,0,1,1-6-6,6,6,0,0,1,6,6h0Z"/><path id="Stroke-1844" class="cls-2" d="M38,14a6,6,0,1,1-6-6,6,6,0,0,1,6,6h0Z"/><path id="Fill-1845" class="cls-5" d="M56,14a6,6,0,1,1-6-6,6,6,0,0,1,6,6h0Z"/><path id="Stroke-1846" class="cls-2" d="M56,14a6,6,0,1,1-6-6,6,6,0,0,1,6,6h0Z"/></g></g></svg>